<?xml version="1.0" encoding="UTF-8"?>
<svg width="512" height="512" viewBox="0 0 512 512" fill="none" xmlns="http://www.w3.org/2000/svg">
    <!-- Background Circle -->
    <circle cx="256" cy="256" r="240" fill="url(#gradient)" />
    
    <!-- Brain Pattern -->
    <path d="M256 120C180 120 120 180 120 256C120 332 180 392 256 392C332 392 392 332 392 256C392 180 332 120 256 120ZM256 352C202 352 160 310 160 256C160 202 202 160 256 160C310 160 352 202 352 256C352 310 310 352 256 352Z" fill="white" fill-opacity="0.9"/>
    
    <!-- Connecting Lines -->
    <g stroke="white" stroke-width="4" stroke-linecap="round">
        <line x1="256" y1="140" x2="256" y2="180" />
        <line x1="256" y1="332" x2="256" y2="372" />
        <line x1="140" y1="256" x2="180" y2="256" />
        <line x1="332" y1="256" x2="372" y2="256" />
    </g>
    
    <!-- Pulse Rings -->
    <circle cx="256" cy="256" r="60" stroke="white" stroke-width="4" fill="none">
        <animate attributeName="r" from="60" to="80" dur="2s" repeatCount="indefinite" />
        <animate attributeName="opacity" from="0.6" to="0" dur="2s" repeatCount="indefinite" />
    </circle>
    
    <!-- Gradient Definition -->
    <defs>
        <linearGradient id="gradient" x1="0" y1="0" x2="512" y2="512" gradientUnits="userSpaceOnUse">
            <stop offset="0%" stop-color="#1E90FF"/>
            <stop offset="100%" stop-color="#4169E1"/>
        </linearGradient>
    </defs>
</svg>
